<svg width="512" height="512" xmlns="http://www.w3.org/2000/svg">

 <g>
  <title>background</title>
  <rect fill="none" id="canvas_background" height="402" width="582" y="-1" x="-1"/>
 </g>
 <g>
  <title>Layer 1</title>
  <polyline fill="none" id="svg_1" points="80,112 80,176 432,176 432,112 " class="st0"/>
  <path fill="#bcbcbc" id="svg_2" d="m352,96l0,-32l-16,0l0,32l-160,0l0,-32l-16,0l0,32l-96,0l0,352l384,0l0,-352l-96,0zm80,336l-352,0l0,-240l352,0l0,240zm0,-256l-352,0l0,-64l80,0l0,32l16,0l0,-32l160,0l0,32l16,0l0,-32l80,0l0,64z"/>
 </g>
</svg>